<svg width="200" height="200" viewBox="0 0 200 200" xmlns="http://www.w3.org/2000/svg">
  <defs>
    <!-- Gradients -->
    <linearGradient id="primaryGradient" x1="0%" y1="0%" x2="100%" y2="100%">
      <stop offset="0%" style="stop-color:#6366f1;stop-opacity:1" />
      <stop offset="100%" style="stop-color:#8b5cf6;stop-opacity:1" />
    </linearGradient>
    
    <linearGradient id="accentGradient" x1="0%" y1="0%" x2="100%" y2="100%">
      <stop offset="0%" style="stop-color:#f59e0b;stop-opacity:1" />
      <stop offset="100%" style="stop-color:#ef4444;stop-opacity:1" />
    </linearGradient>

    <!-- Animations -->
    <style>
      @keyframes float {
        0%, 100% { transform: translateY(0px); }
        50% { transform: translateY(-10px); }
      }
      
      @keyframes rotate {
        from { transform: rotate(0deg); }
        to { transform: rotate(360deg); }
      }
      
      @keyframes pulse {
        0%, 100% { opacity: 1; transform: scale(1); }
        50% { opacity: 0.8; transform: scale(1.05); }
      }
      
      @keyframes sparkle {
        0%, 100% { opacity: 0; transform: scale(0); }
        50% { opacity: 1; transform: scale(1); }
      }
      
      @keyframes pageFlip {
        0%, 100% { transform: rotateY(0deg); }
        50% { transform: rotateY(15deg); }
      }
      
      .book-base {
        animation: float 3s ease-in-out infinite;
      }
      
      .outer-ring {
        animation: rotate 20s linear infinite;
        transform-origin: 100px 100px;
      }
      
      .graduation-cap {
        animation: float 3s ease-in-out infinite 0.5s;
      }
      
      .sparkle {
        animation: sparkle 2s ease-in-out infinite;
      }
      
      .sparkle-1 { animation-delay: 0s; }
      .sparkle-2 { animation-delay: 0.4s; }
      .sparkle-3 { animation-delay: 0.8s; }
      .sparkle-4 { animation-delay: 1.2s; }
      .sparkle-5 { animation-delay: 1.6s; }
      
      .book-page-1 {
        animation: pageFlip 4s ease-in-out infinite;
        transform-origin: 95px 100px;
      }
      
      .brain-pulse {
        animation: pulse 2s ease-in-out infinite;
        transform-origin: 100px 90px;
      }
    </style>
  </defs>

  <!-- Outer rotating ring -->
  <g class="outer-ring">
    <circle cx="100" cy="100" r="90" fill="none" stroke="url(#primaryGradient)" 
            stroke-width="2" opacity="0.3" stroke-dasharray="10 5"/>
  </g>

  <!-- Background circle -->
  <circle cx="100" cy="100" r="85" fill="url(#primaryGradient)" opacity="0.1"/>

  <!-- Book base -->
  <g class="book-base">
    <!-- Book body -->
    <rect x="70" y="95" width="60" height="50" rx="4" 
          fill="url(#primaryGradient)" opacity="0.9"/>
    
    <!-- Book spine highlight -->
    <rect x="70" y="95" width="8" height="50" rx="4" 
          fill="#ffffff" opacity="0.2"/>
    
    <!-- Book pages (left) -->
    <path d="M 75 100 L 75 140 L 95 135 L 95 100 Z" 
          fill="#fff" opacity="0.8" class="book-page-1"/>
    
    <!-- Book pages (right) -->
    <path d="M 105 100 L 105 135 L 125 140 L 125 100 Z" 
          fill="#fff" opacity="0.6"/>
    
    <!-- Page lines -->
    <line x1="80" y1="110" x2="90" y2="110" stroke="#6366f1" 
          stroke-width="1" opacity="0.5"/>
    <line x1="80" y1="115" x2="90" y2="115" stroke="#6366f1" 
          stroke-width="1" opacity="0.5"/>
    <line x1="80" y1="120" x2="90" y2="120" stroke="#6366f1" 
          stroke-width="1" opacity="0.5"/>
    
    <line x1="110" y1="110" x2="120" y2="110" stroke="#6366f1" 
          stroke-width="1" opacity="0.5"/>
    <line x1="110" y1="115" x2="120" y2="115" stroke="#6366f1" 
          stroke-width="1" opacity="0.5"/>
    <line x1="110" y1="120" x2="120" y2="120" stroke="#6366f1" 
          stroke-width="1" opacity="0.5"/>
  </g>

  <!-- Graduation cap -->
  <g class="graduation-cap">
    <!-- Cap top -->
    <path d="M 100 55 L 80 65 L 100 70 L 120 65 Z" 
          fill="url(#accentGradient)"/>
    
    <!-- Cap base -->
    <ellipse cx="100" cy="65" rx="20" ry="6" 
             fill="url(#accentGradient)" opacity="0.8"/>
    
    <!-- Tassel -->
    <line x1="120" y1="65" x2="128" y2="75" 
          stroke="url(#accentGradient)" stroke-width="2"/>
    <circle cx="128" cy="77" r="3" fill="url(#accentGradient)"/>
  </g>

  <!-- Brain/Knowledge symbol -->
  <g class="brain-pulse" opacity="0.6">
    <!-- Brain outline -->
    <path d="M 100 80 Q 90 75 90 85 Q 90 90 95 92 Q 95 95 100 95 Q 105 95 105 92 Q 110 90 110 85 Q 110 75 100 80" 
          fill="none" stroke="#8b5cf6" stroke-width="1.5"/>
  </g>

  <!-- Sparkles -->
  <g>
    <circle cx="50" cy="70" r="2" fill="#f59e0b" class="sparkle sparkle-1"/>
    <circle cx="150" cy="80" r="2" fill="#f59e0b" class="sparkle sparkle-2"/>
    <circle cx="60" cy="130" r="2" fill="#8b5cf6" class="sparkle sparkle-3"/>
    <circle cx="140" cy="120" r="2" fill="#8b5cf6" class="sparkle sparkle-4"/>
    <circle cx="100" cy="50" r="2" fill="#ef4444" class="sparkle sparkle-5"/>
  </g>

  <!-- Light rays -->
  <g opacity="0.2">
    <path d="M 100 100 L 30 30" stroke="url(#primaryGradient)" stroke-width="1"/>
    <path d="M 100 100 L 170 30" stroke="url(#primaryGradient)" stroke-width="1"/>
    <path d="M 100 100 L 30 170" stroke="url(#primaryGradient)" stroke-width="1"/>
    <path d="M 100 100 L 170 170" stroke="url(#primaryGradient)" stroke-width="1"/>
  </g>
</svg>
